# Created by FreeCAD <http://www.freecadweb.org>
v -247.487381 282.842712 -550.000000
v -247.487381 282.842712 550.000000
v 282.842712 -247.487381 550.000000
v 282.842712 -247.487381 -550.000000
v 247.487381 -282.842712 550.000000
v 247.487381 -282.842712 -550.000000
v -282.842712 247.487381 550.000000
v -282.842712 247.487381 -550.000000
v 247.487381 282.842712 -550.000000
v 247.487381 282.842712 550.000000
v 282.842712 247.487381 550.000000
v 282.842712 247.487381 -550.000000
v -247.487381 -282.842712 550.000000
v -247.487381 -282.842712 -550.000000
v -282.842712 -247.487381 550.000000
v -282.842712 -247.487381 -550.000000
v -550.000000 -247.487381 282.842712
v 550.000000 -247.487381 282.842712
v 550.000000 282.842712 -247.487381
v -550.000000 282.842712 -247.487381
v 550.000000 247.487381 -282.842712
v -550.000000 247.487381 -282.842712
v 550.000000 -282.842712 247.487381
v -550.000000 -282.842712 247.487381
v -550.000000 247.487381 282.842712
v 550.000000 247.487381 282.842712
v 550.000000 282.842712 247.487381
v -550.000000 282.842712 247.487381
v 550.000000 -247.487381 -282.842712
v -550.000000 -247.487381 -282.842712
v 550.000000 -282.842712 -247.487381
v -550.000000 -282.842712 -247.487381
v -247.487381 550.000000 282.842712
v -247.487381 -550.000000 282.842712
v 282.842712 -550.000000 -247.487381
v 282.842712 550.000000 -247.487381
v 247.487381 -550.000000 -282.842712
v 247.487381 550.000000 -282.842712
v -282.842712 -550.000000 247.487381
v -282.842712 550.000000 247.487381
v 247.487381 550.000000 282.842712
v 247.487381 -550.000000 282.842712
v 282.842712 -550.000000 247.487381
v 282.842712 550.000000 247.487381
v -247.487381 -550.000000 -282.842712
v -247.487381 550.000000 -282.842712
v -282.842712 -550.000000 -247.487381
v -282.842712 550.000000 -247.487381
vn 0.707107 0.707107 -0.000000
vn 0.707107 0.707107 -0.000000
vn 0.707107 -0.707107 0.000000
vn 0.707107 -0.707107 0.000000
vn -0.707107 -0.707107 0.000000
vn -0.707107 -0.707107 0.000000
vn -0.707107 0.707107 0.000000
vn -0.707107 0.707107 0.000000
vn 0.000000 -0.000000 -1.000000
vn 0.000000 0.000000 -1.000000
vn 0.000000 0.000000 1.000000
vn 0.000000 0.000000 1.000000
vn 0.707107 0.707107 -0.000000
vn 0.707107 0.707107 -0.000000
vn 0.707107 -0.707107 0.000000
vn 0.707107 -0.707107 0.000000
vn -0.707107 -0.707107 0.000000
vn -0.707107 -0.707107 0.000000
vn -0.707107 0.707107 0.000000
vn -0.707107 0.707107 0.000000
vn 0.000000 -0.000000 -1.000000
vn 0.000000 0.000000 -1.000000
vn 0.000000 0.000000 1.000000
vn 0.000000 0.000000 1.000000
vn -0.000000 0.707107 0.707107
vn -0.000000 0.707107 0.707107
vn 0.000000 0.707107 -0.707107
vn 0.000000 0.707107 -0.707107
vn 0.000000 -0.707107 -0.707107
vn 0.000000 -0.707107 -0.707107
vn 0.000000 -0.707107 0.707107
vn 0.000000 -0.707107 0.707107
vn -1.000000 0.000000 -0.000000
vn -1.000000 0.000000 0.000000
vn 1.000000 0.000000 0.000000
vn 1.000000 0.000000 0.000000
vn -0.000000 0.707107 0.707107
vn -0.000000 0.707107 0.707107
vn 0.000000 0.707107 -0.707107
vn 0.000000 0.707107 -0.707107
vn 0.000000 -0.707107 -0.707107
vn 0.000000 -0.707107 -0.707107
vn 0.000000 -0.707107 0.707107
vn 0.000000 -0.707107 0.707107
vn -1.000000 0.000000 -0.000000
vn -1.000000 0.000000 0.000000
vn 1.000000 0.000000 0.000000
vn 1.000000 0.000000 0.000000
vn 0.707107 0.000000 0.707107
vn 0.707107 0.000000 0.707107
vn 0.707107 0.000000 -0.707107
vn 0.707107 0.000000 -0.707107
vn -0.707107 -0.000000 -0.707107
vn -0.707107 -0.000000 -0.707107
vn -0.707107 0.000000 0.707107
vn -0.707107 0.000000 0.707107
vn 0.000000 1.000000 0.000000
vn 0.000000 1.000000 0.000000
vn 0.000000 -1.000000 0.000000
vn -0.000000 -1.000000 0.000000
vn 0.707107 0.000000 0.707107
vn 0.707107 0.000000 0.707107
vn 0.707107 0.000000 -0.707107
vn 0.707107 0.000000 -0.707107
vn -0.707107 -0.000000 -0.707107
vn -0.707107 -0.000000 -0.707107
vn -0.707107 0.000000 0.707107
vn -0.707107 0.000000 0.707107
vn 0.000000 1.000000 0.000000
vn -0.000000 1.000000 0.000000
vn -0.000000 -1.000000 0.000000
vn 0.000000 -1.000000 0.000000
g Extrude
f 1//1 2//1 3//1
f 4//2 1//2 3//2
f 4//3 3//3 5//3
f 6//4 4//4 5//4
f 6//5 5//5 7//5
f 8//6 6//6 7//6
f 8//7 7//7 2//7
f 1//8 8//8 2//8
f 1//9 4//9 8//9
f 8//10 4//10 6//10
f 3//11 2//11 7//11
f 3//12 7//12 5//12
f 9//13 10//13 11//13
f 12//14 9//14 11//14
f 12//15 11//15 13//15
f 14//16 12//16 13//16
f 14//17 13//17 15//17
f 16//18 14//18 15//18
f 16//19 15//19 10//19
f 9//20 16//20 10//20
f 9//21 12//21 16//21
f 16//22 12//22 14//22
f 11//23 10//23 15//23
f 11//24 15//24 13//24
g Extrude001
f 17//25 18//25 19//25
f 20//26 17//26 19//26
f 20//27 19//27 21//27
f 22//28 20//28 21//28
f 22//29 21//29 23//29
f 24//30 22//30 23//30
f 24//31 23//31 18//31
f 17//32 24//32 18//32
f 17//33 20//33 24//33
f 24//34 20//34 22//34
f 19//35 18//35 23//35
f 19//36 23//36 21//36
f 25//37 26//37 27//37
f 28//38 25//38 27//38
f 28//39 27//39 29//39
f 30//40 28//40 29//40
f 30//41 29//41 31//41
f 32//42 30//42 31//42
f 32//43 31//43 26//43
f 25//44 32//44 26//44
f 25//45 28//45 32//45
f 32//46 28//46 30//46
f 27//47 26//47 31//47
f 27//48 31//48 29//48
g Extrude002
f 33//49 34//49 35//49
f 36//50 33//50 35//50
f 36//51 35//51 37//51
f 38//52 36//52 37//52
f 38//53 37//53 39//53
f 40//54 38//54 39//54
f 40//55 39//55 34//55
f 33//56 40//56 34//56
f 33//57 36//57 40//57
f 40//58 36//58 38//58
f 35//59 34//59 39//59
f 35//60 39//60 37//60
f 41//61 42//61 43//61
f 44//62 41//62 43//62
f 44//63 43//63 45//63
f 46//64 44//64 45//64
f 46//65 45//65 47//65
f 48//66 46//66 47//66
f 48//67 47//67 42//67
f 41//68 48//68 42//68
f 41//69 44//69 48//69
f 48//70 44//70 46//70
f 43//71 42//71 47//71
f 43//72 47//72 45//72
g Sketch001
g Sketch
g Sketch002
